#N canvas 42 247 1452 568 12;
#X msg 146 217 [;
#X msg 37 216 ];
#X obj 37 175 t b a b, f 16;
#X obj 37 314 mrpeach/packOSC;
#X obj 37 143 list trim;
#X obj 37 12 tgl 19 0 empty empty empty 0 -10 0 12 #fcfcfc #000000 #000000 0 1;
#X msg 37 79 tick;
#X obj 856 89 mrpeach/unpackOSC;
#X text 852 25 receive OSC messages;
#X text 36 197 close bundle;
#X text 141 197 open a bundle (and generate a timetag);
#X text 985 158 If the OSC packet has a timetag \, [pipelist] will delay it until the time occurs;
#X obj 856 161 mrpeach/pipelist, f 17;
#X floatatom 982 121 10 0 0 1 - - - 0;
#X obj 37 48 metro 500;
#X text 64 12 Send a metronome puls to remote client;
#X obj 855 432 dac~;
#X msg 876 272 bang;
#X obj 855 303 tabplay~ array1;
#X text 927 276 test the audio;
#X obj 794 241 print;
#X obj 898 361 hsl 128 15 0 1 0 0 empty empty empty -2 -8 0 10 #fcfcfc #000000 #000000 0 1;
#X obj 856 389 *~ 0.4;
#X text 894 337 volume;
#X obj 1083 339 soundfiler;
#X msg 1083 305 read -resize ./tick.wav array1;
#X obj 1083 236 loadbang;
#X msg 1103 263 \; pd dsp 1;
#X obj 856 239 route tick;
#X text 1055 121 timetag offset in millieconds relative to receiver's clock.;
#X obj 143 246 loadbang;
#X obj 19 335 cnv 15 380 160 empty empty empty 20 12 0 14 #fcfcc4 #404040 0;
#N canvas 0 22 450 300 (subpatch) 0;
#X array array1 4316 float 0;
#X coords 0 1 4315 -1 300 100 1;
#X restore 1070 406 graph;
#X text 1068 372 load tick audio to local buffer;
#X text 287 272 current time plus 4 second;
#X obj 856 55 mrpeach/udpreceive 8001;
#X obj 856 206 mrpeach/routeOSC /tick;
#X obj 37 111 list prepend /tick;
#X obj 237 372 loadbang;
#X msg 309 372 disconnect;
#X text 34 344 connect to python server;
#X msg 237 399 connect 127.0.0.1 8001;
#X obj 37 428 mrpeach/udpsend;
#X obj 130 453 tgl 19 0 empty empty empty 0 -10 0 12 #fcfcfc #000000 #000000 0 1;
#X text 34 453 is connected:;
#X obj 237 428 mrpeach/udpsend;
#X obj 330 453 tgl 19 0 empty empty empty 0 -10 0 12 #fcfcfc #000000 #000000 0 1;
#X text 234 453 is connected:;
#X obj 38 370 loadbang;
#X msg 110 370 disconnect;
#X msg 38 397 connect 127.0.0.1 8001;
#X text 233 345 connect to local server;
#X msg 143 273 timetagoffset 4e+06;
#X connect 0 0 3 0;
#X connect 1 0 3 0;
#X connect 2 0 1 0;
#X connect 2 1 3 0;
#X connect 2 2 0 0;
#X connect 3 0 42 0;
#X connect 3 0 45 0;
#X connect 4 0 2 0;
#X connect 5 0 14 0;
#X connect 6 0 37 0;
#X connect 7 0 12 0;
#X connect 7 1 12 1;
#X connect 7 1 13 0;
#X connect 12 0 36 0;
#X connect 14 0 6 0;
#X connect 17 0 18 0;
#X connect 18 0 22 0;
#X connect 21 0 22 1;
#X connect 22 0 16 0;
#X connect 22 0 16 1;
#X connect 25 0 24 0;
#X connect 26 0 25 0;
#X connect 26 0 27 0;
#X connect 28 0 18 0;
#X connect 30 0 52 0;
#X connect 35 0 7 0;
#X connect 36 0 28 0;
#X connect 36 0 20 0;
#X connect 37 0 4 0;
#X connect 38 0 41 0;
#X connect 39 0 45 0;
#X connect 41 0 45 0;
#X connect 42 0 43 0;
#X connect 45 0 46 0;
#X connect 48 0 50 0;
#X connect 49 0 42 0;
#X connect 50 0 42 0;
#X connect 52 0 3 0;
