#N canvas 946 193 814 407 12;
#X msg 146 181 [;
#X msg 37 180 ];
#X text 36 160 close bundle;
#X obj 37 132 t b a b, f 16;
#X obj 37 102 list trim;
#X text 564 91 unpack the OSC formatted message;
#X text 598 122 route the desired OSC address;
#X text 252 273 connect to python server;
#X obj 79 246 loadbang;
#X text 141 160 open a bundle;
#X text 83 28 send message to python;
#X obj 431 89 mrpeach/unpackOSC;
#X obj 37 216 mrpeach/packOSC;
#X text 427 28 receive OSC messages on port;
#X obj 37 304 mrpeach/udpsend;
#X obj 431 157 print osc;
#X msg 149 244 disconnect;
#X obj 431 55 mrpeach/udpreceive 8001;
#X msg 81 271 connect 127.0.0.1 8000;
#X obj 431 123 mrpeach/routeOSC /tick;
#X obj 37 71 list prepend /tick;
#X msg 37 27 tick;
#X connect 0 0 12 0;
#X connect 1 0 12 0;
#X connect 3 0 1 0;
#X connect 3 1 12 0;
#X connect 3 2 0 0;
#X connect 4 0 3 0;
#X connect 8 0 18 0;
#X connect 11 0 19 0;
#X connect 12 0 14 0;
#X connect 16 0 14 0;
#X connect 17 0 11 0;
#X connect 18 0 14 0;
#X connect 19 0 15 0;
#X connect 20 0 4 0;
#X connect 21 0 20 0;
