#N canvas 181 126 1242 496 12;
#X msg 146 217 [;
#X msg 37 216 ];
#X obj 37 175 t b a b, f 16;
#X obj 39 316 mrpeach/packOSC;
#X obj 37 143 list trim;
#X obj 37 12 tgl 19 0 empty empty empty 0 -10 0 12 #fcfcfc #000000 #000000 0 1;
#X msg 37 79 tick;
#N canvas 0 22 450 300 (subpatch) 0;
#X array array1 4316 float 0;
#X coords 0 1 4315 -1 300 100 1;
#X restore 874 295 graph;
#X obj 587 95 mrpeach/unpackOSC;
#X text 583 31 receive OSC messages;
#X text 36 197 close bundle;
#X text 141 197 open a bundle (and generate a timetag);
#X obj 159 239 cnv 15 320 60 empty empty empty 20 12 0 14 #fcfcc4 #404040 0;
#X msg 165 250 timetagoffset 0;
#X msg 187 273 timetagoffset -1;
#X text 277 250 send current time as timetag;
#X text 308 273 immediate time tag (default);
#X obj 579 123 cnv 15 650 80 empty empty empty 10 12 0 14 #fcfcc4 #404040 0;
#X text 716 164 If the OSC packet has a timetag \, [pipelist] will delay it until the time occurs;
#X obj 587 167 mrpeach/pipelist, f 17;
#X floatatom 713 127 10 0 0 1 - - - 0;
#X obj 57 368 loadbang;
#X obj 38 428 mrpeach/udpsend;
#X obj 132 457 tgl 19 0 empty empty empty 0 -10 0 12 #fcfcfc #000000 #000000 0 1;
#X text 36 457 is connected:;
#X msg 129 368 disconnect;
#X text 225 396 connect to python server;
#X obj 37 48 metro 500;
#X text 64 12 Send a metronome puls to remote client;
#X obj 587 61 mrpeach/udpreceive 8001;
#X obj 586 438 dac~;
#X msg 607 278 bang;
#X obj 586 309 tabplay~ array1;
#X text 658 282 test the audio;
#X obj 540 274 print;
#X obj 629 367 hsl 128 15 0 1 0 0 empty empty empty -2 -8 0 10 #fcfcfc #000000 #000000 0 1;
#X obj 587 395 *~ 0.4;
#X text 625 343 volume;
#X obj 778 442 soundfiler;
#X msg 778 408 read -resize ./tick.wav array1;
#X obj 778 339 loadbang;
#X msg 798 366 \; pd dsp 1;
#X text 872 261 load tick audio to local buffer;
#X msg 57 395 connect 127.0.0.1 8000;
#X obj 587 245 route tick;
#X text 786 127 timetag offset in millieconds relative to receiver's clock.;
#X obj 587 212 mrpeach/routeOSC /tick;
#X obj 37 111 list prepend /tick;
#X connect 0 0 3 0;
#X connect 1 0 3 0;
#X connect 2 0 1 0;
#X connect 2 1 3 0;
#X connect 2 2 0 0;
#X connect 3 0 22 0;
#X connect 4 0 2 0;
#X connect 5 0 27 0;
#X connect 6 0 47 0;
#X connect 8 0 19 0;
#X connect 8 1 19 1;
#X connect 8 1 20 0;
#X connect 13 0 3 0;
#X connect 14 0 3 0;
#X connect 19 0 46 0;
#X connect 21 0 43 0;
#X connect 22 0 23 0;
#X connect 25 0 22 0;
#X connect 27 0 6 0;
#X connect 29 0 8 0;
#X connect 31 0 32 0;
#X connect 32 0 36 0;
#X connect 35 0 36 1;
#X connect 36 0 30 0;
#X connect 36 0 30 1;
#X connect 39 0 38 0;
#X connect 40 0 39 0;
#X connect 40 0 41 0;
#X connect 43 0 22 0;
#X connect 44 0 32 0;
#X connect 46 0 44 0;
#X connect 46 0 34 0;
#X connect 47 0 4 0;
